<?xml version="1.0" encoding="UTF-8"?>
<svg id="Layer_1" xmlns="http://www.w3.org/2000/svg" viewBox="0 0 750 750">
  <defs>
    <style>
      .cls-1 {
        fill: #fef48d;
      }

      .cls-1, .cls-2, .cls-3, .cls-4 {
        stroke: #231f20;
        stroke-miterlimit: 10;
        stroke-width: 2.92px;
      }

      .cls-2 {
        fill: #ffd486;
      }

      .cls-3 {
        fill: #1c458d;
      }

      .cls-4 {
        fill: #5998c5;
      }
    </style>
  </defs>
  <path class="cls-3" d="M611.05,533.99v90.85s0,.01-.01.02l-78.61,45.4s-.03,0-.03-.02v-181.61s.02-.03.03-.02l78.61,45.36s.01.01.01.02Z"/>
  <path class="cls-3" d="M296.33,352.33v90.77s-.01.04-.03.06l-78.56,45.35s-.1,0-.1-.06v-181.46s.05-.08.1-.06l78.56,45.35s.03.03.03.06Z"/>
  <polyline class="cls-2" points="296.33 352.3 375.02 306.88 296.33 261.46"/>
  <polyline class="cls-2" points="375.02 397.72 296.33 352.3 375.02 306.88"/>
  <path class="cls-2" d="M611.05,443.14l78.68,45.42s0,0,0,0v-90.83"/>
  <polyline class="cls-2" points="453.71 261.46 453.71 261.42 375.02 216 375.02 306.88"/>
  <polyline class="cls-1" points="611.05 443.14 689.73 488.56 689.73 488.6 611.05 533.98"/>
  <polyline class="cls-1" points="375.02 216 375.02 306.88 296.33 261.46"/>
  <path class="cls-3" d="M375.01,216l-78.68,45.45s0,0,0,0l-78.68-45.46-78.69-45.42-78.68-45.42s0,0,0-.01l78.68-45.42h.04l78.65,45.42,78.69,45.42,78.68,45.42s0,0,0,.01Z"/>
  <path class="cls-4" d="M296.33,261.46v90.81h-.02s-78.65-45.39-78.65-45.39h-.02v181.65h-.02s-78.66-45.4-78.66-45.4h0v-181.72h0s-78.68-45.42-78.68-45.42h0v-90.82h.02s78.67,45.4,78.67,45.4l78.69,45.42,78.68,45.45h0Z"/>
  <path class="cls-4" d="M611.05,443.15v90.79s-.02.03-.03.02l-78.59-45.35s-.03,0-.03.02v181.61s-.02.03-.03.02l-78.65-45.4s-.01-.01-.01-.02v-181.7s0-.01-.01-.02l-78.67-45.41s-.01-.01-.01-.02v-90.79s.02-.03.03-.02l78.66,45.4,78.65,45.42h.04l78.64,45.42s.01.01.01.02Z"/>
  <path class="cls-3" d="M689.72,397.73l-78.68,45.41-78.65-45.42h-.04l-78.65-45.42-78.69-45.42,78.69-45.42,78.69,45.42,78.65,45.42,78.68,45.41s0,.01,0,.01Z"/>
</svg>